<svg xmlns="http://www.w3.org/2000/svg" xmlns:xlink="http://www.w3.org/1999/xlink" xmlns:serif="http://www.serif.com/" width="100%" height="100%" viewBox="0 0 56 56" xml:space="preserve" style="fill-rule:evenodd;clip-rule:evenodd;stroke-linejoin:round;stroke-miterlimit:2;">    <g transform="matrix(-0.386279,0,0,0.375349,83.7009,-19.0499)">        <path d="M195.55,177.441C212.631,158.238 212.579,92.337 195.563,73.287C178.548,54.237 109.913,54.058 92.831,73.262C75.75,92.465 75.834,158.359 92.85,177.409C109.865,196.459 178.468,196.645 195.55,177.441Z" style="fill:rgb(49,105,236);"></path>    </g>    <path d="M6.013,49.522C7.611,51.268 10.133,52.731 13.274,53.774C17.424,55.152 22.717,55.854 28.013,55.848C33.306,55.841 38.596,55.126 42.74,53.747C45.875,52.703 48.391,51.245 49.982,49.514C53.612,45.566 55.689,36.829 55.694,28.018C55.7,19.21 53.636,10.459 49.994,6.479C48.395,4.734 45.873,3.27 42.731,2.227C38.58,0.849 33.285,0.146 27.988,0.152C22.692,0.159 17.401,0.873 13.256,2.252C10.119,3.295 7.603,4.753 6.011,6.484C2.382,10.433 0.308,19.171 0.306,27.983C0.304,36.792 2.37,45.543 6.013,49.522ZM8.164,47.553C1.566,40.345 1.586,15.609 8.159,8.458C14.732,1.308 41.244,1.241 47.842,8.449C54.44,15.657 54.408,40.39 47.835,47.54C41.262,54.691 14.762,54.761 8.164,47.553ZM28.827,12.262C31.99,12.286 35.143,13.274 37.739,15.086C39.338,16.122 39.827,18.171 38.37,19.742C38.109,20.007 37.847,20.271 37.584,20.535C37.051,21.069 36.276,21.843 36.276,21.843C35.195,22.817 33.705,22.915 32.426,22.077C29.167,19.942 24.621,21.069 22.592,24.713C20.498,28.474 22.53,33.124 26.309,34.536C28.378,35.308 30.707,35.059 32.642,33.785C33.169,33.438 34.923,32.835 36.267,34.163C36.902,34.792 37.544,35.428 38.127,36.009C38.829,36.709 39.136,37.293 39.203,38.089C39.335,39.674 38.43,40.713 36.325,41.797C30.69,44.891 23.629,44.393 18.306,39.773C12.949,35.216 11.375,26.979 14.819,20.668C17.624,15.529 22.763,12.338 28.441,12.265C28.57,12.263 28.698,12.262 28.827,12.262Z" style="fill:white;"></path></svg>